# xmcd
#
# Track frame offsets:
#	150
#	11348
#	23266
#	33594
#	42647
#	52292
#	64172
#	75295
#	86785
#	96790
#	108168
#
# Disc length: 1569 seconds
#
# Revision: 1
# Processed by: cddbd v1.5.2PL0 Copyright (c) Steve Scherf et al.
# Submitted via: audiograbber 1.83.01
#
DISCID=80061f0b
DTITLE=Loretta Lynn - Love Is The Foundation
DYEAR=1973
DGENRE=Country
TTITLE0=Love Is The Foundation
TTITLE1=What Sundown Does To You
TTITLE2=I Love You, I Love You
TTITLE3=Just To Satisfy (The Weakness In A Man)
TTITLE4=There's More To Leaving Than Just Saying Goodbye
TTITLE5=Satin Sheets
TTITLE6=Why Me
TTITLE7=Five Fingers Left
TTITLE8=I Gave Everything (That A Girl In Love Should Never Give)
TTITLE9=Hey Loretta
TTITLE10=You're Still Lovin' Me
EXTD=
EXTT0=
EXTT1=
EXTT2=
EXTT3=
EXTT4=
EXTT5=
EXTT6=
EXTT7=
EXTT8=
EXTT9=
EXTT10=
PLAYORDER=
